<svg width="337.2625244140625px" height="112.8199249267578px" xmlns="http://www.w3.org/2000/svg" viewBox="81.36873779296874 18.590037536621097 337.2625244140625 112.8199249267578" style="background: rgba(242, 237, 219, 0);" preserveAspectRatio="xMidYMid"><defs><filter id="editing-vintage" x="-100%" y="-100%" width="300%" height="300%"><feConvolveMatrix in="SourceGraphic" result="extrude" order="10,10" divisor="1" kernelMatrix="1,0,0,0,0,0,0,0,0,0,0,1,0,0,0,0,0,0,0,0,0,0,1,0,0,0,0,0,0,0,0,0,0,1,0,0,0,0,0,0,0,0,0,0,1,0,0,0,0,0,0,0,0,0,0,1,0,0,0,0,0,0,0,0,0,0,1,0,0,0,0,0,0,0,0,0,0,1,0,0,0,0,0,0,0,0,0,0,1,0,0,0,0,0,0,0,0,0,0,1"> </feConvolveMatrix><feFlood flood-color="#520d02" result="flood-extrude"></feFlood><feComposite operator="in" in="flood-extrude" in2="extrude" result="extrude-color"></feComposite><feOffset dx="5" dy="5" in="extrude-color" result="extrude-offset"></feOffset><feColorMatrix in="SourceGraphic" result="stroke" type="matrix" values="0 0 0 0 0 0 0 0 0 0 0 0 0 0 0 0 1 0 0 0 "></feColorMatrix><feColorMatrix in="SourceGraphic" result="fill" type="matrix" values="0 0 0 0 0 0 0 0 0 0 0 0 0 0 0 1 0 0 1 0 "></feColorMatrix><feConvolveMatrix in="stroke" result="inner-shadow" order="5,5" divisor="1" kernelMatrix="1 0 0 0 0 0 1 0 0 0 0 0 1 0 0 0 0 0 1 0 0 0 0 0 1 "></feConvolveMatrix><feOffset dx="1" dy="1" in="inner-shadow" result="offset"></feOffset><feComposite operator="in" in="offset" in2="SourceAlpha" result="comp"></feComposite><feFlood flood-color="#331600" result="flood3"></feFlood><feComposite operator="in" in="flood3" in2="comp" result="comp2"></feComposite><feColorMatrix in="comp2" result="comp3" type="matrix" values="1 0 0 0 0 0 1 0 0 0 0 0 1 0 0 0 0 0 0.5 0 "></feColorMatrix><feFlood flood-color="#d73e04" result="flood1"></feFlood><feComposite operator="in" in="flood1" in2="fill" result="fill2"></feComposite><feFlood flood-color="#fff" result="flood2"></feFlood><feComposite operator="in" in="flood2" in2="stroke" result="stroke2"></feComposite><feMerge result="obj"><feMergeNode in="extrude-offset"></feMergeNode><feMergeNode in="fill2"></feMergeNode><feMergeNode in="comp3"></feMergeNode></feMerge><feConvolveMatrix in="SourceAlpha" result="shadow" order="10,10" divisor="1" kernelMatrix="1,0,0,0,0,0,0,0,0,0,0,1,0,0,0,0,0,0,0,0,0,0,1,0,0,0,0,0,0,0,0,0,0,1,0,0,0,0,0,0,0,0,0,0,1,0,0,0,0,0,0,0,0,0,0,1,0,0,0,0,0,0,0,0,0,0,1,0,0,0,0,0,0,0,0,0,0,1,0,0,0,0,0,0,0,0,0,0,1,0,0,0,0,0,0,0,0,0,0,1"></feConvolveMatrix><feOffset dx="15" dy="15" in="shadow" result="shadow-offset"></feOffset><feFlood flood-color="#300a00" result="flood-shadow"></feFlood><feComposite operator="in" in="flood-shadow" in2="shadow-offset" result="shadow-color"></feComposite><feMerge><feMergeNode in="shadow-color"></feMergeNode><feMergeNode in="obj"></feMergeNode></feMerge></filter></defs><g transform="translate(-10,-10)"><g filter="url(#editing-vintage)"><g transform="translate(134.53061890602112, 98.77499961853027)"><path d="M10.62-2.62L0.26 0.06L0.26 0.06Q1.98-8.45 3.58-16.58L3.58-16.58L3.58-16.58Q4.16-20.03 4.86-23.78L4.86-23.78L4.86-23.78Q5.57-27.52 6.18-31.20L6.18-31.20L6.18-31.20Q6.78-34.88 7.33-38.30L7.33-38.30L7.33-38.30Q7.87-41.73 8.19-44.54L8.19-44.54L8.19-44.54Q11.84-45.70 16.06-46.24L16.06-46.24L16.06-46.24Q20.29-46.78 24.45-46.78L24.45-46.78L24.45-46.78Q26.94-46.78 28.58-46.21L28.58-46.21L28.58-46.21Q30.21-45.63 31.14-44.58L31.14-44.58L31.14-44.58Q32.06-43.52 32.45-42.11L32.45-42.11L32.45-42.11Q32.83-40.70 32.83-38.98L32.83-38.98L32.83-38.98Q32.83-36.42 31.94-33.95L31.94-33.95L31.94-33.95Q31.04-31.49 29.54-29.28L29.54-29.28L29.54-29.28Q28.03-27.07 26.08-25.25L26.08-25.25L26.08-25.25Q24.13-23.42 21.89-22.27L21.89-22.27L21.89-22.27Q23.04-19.71 24.35-16.67L24.35-16.67L24.35-16.67Q25.66-13.63 26.82-10.88L26.82-10.88L26.82-10.88Q28.10-7.68 29.44-4.48L29.44-4.48L19.52-1.02L19.52-1.02Q18.24-5.44 17.22-9.34L17.22-9.34L17.22-9.34Q16.77-10.94 16.32-12.64L16.32-12.64L16.32-12.64Q15.87-14.34 15.49-15.84L15.49-15.84L15.49-15.84Q15.10-17.34 14.85-18.50L14.85-18.50L14.85-18.50Q14.59-19.65 14.53-20.29L14.53-20.29L13.70-20.03L13.70-20.03Q13.31-17.98 12.77-15.04L12.77-15.04L12.77-15.04Q12.22-12.10 11.78-9.34L11.78-9.34L11.78-9.34Q11.20-6.08 10.62-2.62L10.62-2.62ZM17.34-37.89L15.30-27.71L15.30-27.71Q16.51-27.84 18.27-28.74L18.27-28.74L18.27-28.74Q20.03-29.63 21.63-30.88L21.63-30.88L21.63-30.88Q23.23-32.13 24.38-33.47L24.38-33.47L24.38-33.47Q25.54-34.82 25.54-35.84L25.54-35.84L25.54-35.84Q25.54-36.54 25.09-36.96L25.09-36.96L25.09-36.96Q24.64-37.38 23.84-37.60L23.84-37.60L23.84-37.60Q23.04-37.82 22.08-37.89L22.08-37.89L22.08-37.89Q21.12-37.95 20.10-37.95L20.10-37.95L20.10-37.95Q19.39-37.95 18.66-37.92L18.66-37.92L18.66-37.92Q17.92-37.89 17.34-37.89L17.34-37.89ZM49.60-3.14L28.93 0.06L37.31-45.44L57.54-47.17L57.54-47.17Q57.09-45.76 56.77-44.29L56.77-44.29L56.77-44.29Q56.45-43.07 56.16-41.76L56.16-41.76L56.16-41.76Q55.87-40.45 55.68-39.42L55.68-39.42L55.68-39.42Q55.04-39.36 53.86-39.33L53.86-39.33L53.86-39.33Q52.67-39.30 51.33-39.26L51.33-39.26L51.33-39.26Q49.98-39.23 48.61-39.23L48.61-39.23L48.61-39.23Q47.23-39.23 46.21-39.23L46.21-39.23L43.97-27.78L43.97-27.78Q45.95-27.90 47.68-27.97L47.68-27.97L47.68-27.97Q49.09-28.03 50.56-28.03L50.56-28.03L50.56-28.03Q52.03-28.03 52.74-28.10L52.74-28.10L52.74-28.10Q52.48-26.30 52.26-24.58L52.26-24.58L52.26-24.58Q52.03-22.85 51.71-21.06L51.71-21.06L51.71-21.06Q51.07-20.99 49.63-20.96L49.63-20.96L49.63-20.96Q48.19-20.93 46.72-20.86L46.72-20.86L46.72-20.86Q45.06-20.80 43.07-20.74L43.07-20.74L40.90-8.96L50.24-10.43L49.60-3.14ZM78.59-15.81L78.59-15.81Q78.59-12.22 77.22-9.31L77.22-9.31L77.22-9.31Q75.84-6.40 73.50-4.29L73.50-4.29L73.50-4.29Q71.17-2.18 68-1.02L68-1.02L68-1.02Q64.83 0.13 61.18 0.13L61.18 0.13L61.18 0.13Q58.62 0.13 56.06-1.25L56.06-1.25L56.06-1.25Q53.50-2.62 51.14-5.63L51.14-5.63L55.87-14.91L55.87-14.91Q56.32-14.08 57.22-13.22L57.22-13.22L57.22-13.22Q58.11-12.35 59.23-11.71L59.23-11.71L59.23-11.71Q60.35-11.07 61.47-10.66L61.47-10.66L61.47-10.66Q62.59-10.24 63.49-10.24L63.49-10.24L63.49-10.24Q64.26-10.24 65.09-10.50L65.09-10.50L65.09-10.50Q65.92-10.75 66.62-11.26L66.62-11.26L66.62-11.26Q67.33-11.78 67.74-12.45L67.74-12.45L67.74-12.45Q68.16-13.12 68.16-14.02L68.16-14.02L68.16-14.02Q68.16-15.55 67.17-16.86L67.17-16.86L67.17-16.86Q66.18-18.18 64.70-19.36L64.70-19.36L64.70-19.36Q63.23-20.54 61.50-21.76L61.50-21.76L61.50-21.76Q59.78-22.98 58.34-24.32L58.34-24.32L58.34-24.32Q56.90-25.66 55.87-27.33L55.87-27.33L55.87-27.33Q54.85-28.99 54.85-31.04L54.85-31.04L54.85-31.04Q54.85-34.37 56.83-37.25L56.83-37.25L56.83-37.25Q58.82-40.13 61.79-42.21L61.79-42.21L61.79-42.21Q64.77-44.29 68.29-45.50L68.29-45.50L68.29-45.50Q71.81-46.72 74.94-46.72L74.94-46.72L74.94-46.72Q76.67-46.72 78.21-46.30L78.21-46.30L78.21-46.30Q79.74-45.89 80.86-44.96L80.86-44.96L80.86-44.96Q81.98-44.03 82.66-42.62L82.66-42.62L82.66-42.62Q83.33-41.22 83.33-39.10L83.33-39.10L83.33-39.10Q83.33-38.21 83.17-37.31L83.17-37.31L83.17-37.31Q83.01-36.42 82.88-35.39L82.88-35.39L73.60-32.70L73.60-32.70Q73.73-33.22 73.82-33.73L73.82-33.73L73.82-33.73Q73.92-34.24 73.92-34.75L73.92-34.75L73.92-34.75Q73.92-36.67 73.25-37.54L73.25-37.54L73.25-37.54Q72.58-38.40 71.49-38.40L71.49-38.40L71.49-38.40Q70.98-38.40 70.24-38.02L70.24-38.02L70.24-38.02Q69.50-37.63 68.77-37.02L68.77-37.02L68.77-37.02Q68.03-36.42 67.52-35.58L67.52-35.58L67.52-35.58Q67.01-34.75 67.01-33.79L67.01-33.79L67.01-33.79Q67.01-32.26 67.87-31.23L67.87-31.23L67.87-31.23Q68.74-30.21 70.02-29.31L70.02-29.31L70.02-29.31Q71.30-28.42 72.80-27.49L72.80-27.49L72.80-27.49Q74.30-26.56 75.58-25.09L75.58-25.09L75.58-25.09Q76.86-23.62 77.73-21.41L77.73-21.41L77.73-21.41Q78.59-19.20 78.59-15.81L78.59-15.81ZM95.04-1.73L83.52 0.06L83.52 0.06Q84.99-6.98 86.34-13.82L86.34-13.82L86.34-13.82Q86.91-16.70 87.49-19.84L87.49-19.84L87.49-19.84Q88.06-22.98 88.61-26.02L88.61-26.02L88.61-26.02Q89.15-29.06 89.57-31.90L89.57-31.90L89.57-31.90Q89.98-34.75 90.30-37.12L90.30-37.12L90.30-37.12Q88.83-37.31 87.33-37.25L87.33-37.25L87.33-37.25Q85.82-37.18 84.35-37.63L84.35-37.63L84.35-37.63Q84.42-38.66 84.42-40L84.42-40L84.42-40Q84.42-41.34 84.48-42.69L84.48-42.69L84.48-42.69Q84.54-44.16 84.61-45.82L84.61-45.82L84.61-45.82Q86.27-45.70 87.94-45.63L87.94-45.63L87.94-45.63Q89.60-45.57 91.26-45.57L91.26-45.57L91.26-45.57Q94.53-45.57 97.57-45.73L97.57-45.73L97.57-45.73Q100.61-45.89 103.20-46.11L103.20-46.11L103.20-46.11Q105.79-46.34 108.29-46.66L108.29-46.66L107.58-43.20L107.58-43.20Q107.26-41.73 106.98-40.19L106.98-40.19L106.98-40.19Q106.69-38.66 106.43-37.57L106.43-37.57L106.43-37.57Q105.02-37.18 103.58-37.02L103.58-37.02L103.58-37.02Q102.14-36.86 100.74-36.61L100.74-36.61L100.74-36.61Q100.29-34.43 99.78-31.78L99.78-31.78L99.78-31.78Q99.26-29.12 98.78-26.27L98.78-26.27L98.78-26.27Q98.30-23.42 97.86-20.48L97.86-20.48L97.86-20.48Q97.41-17.54 96.96-14.85L96.96-14.85L96.96-14.85Q95.94-8.51 95.04-1.73L95.04-1.73ZM124.48-1.28L124.48-1.28Q122.88-1.02 120.96-0.70L120.96-0.70L120.96-0.70Q119.04-0.38 117.50-0.13L117.50-0.13L117.50-0.13Q117.76-2.24 118.02-4.29L118.02-4.29L118.02-4.29Q118.21-6.08 118.37-7.87L118.37-7.87L118.37-7.87Q118.53-9.66 118.66-10.94L118.66-10.94L113.09-10.94L110.53-1.73L110.53-1.73Q109.12-1.54 107.20-1.31L107.20-1.31L107.20-1.31Q105.28-1.09 103.62-0.90L103.62-0.90L103.62-0.90Q101.57-0.64 99.58-0.38L99.58-0.38L99.58-0.38Q102.14-8.90 104.64-17.15L104.64-17.15L104.64-17.15Q105.66-20.61 106.78-24.38L106.78-24.38L106.78-24.38Q107.90-28.16 109.02-31.90L109.02-31.90L109.02-31.90Q110.14-35.65 111.17-39.10L111.17-39.10L111.17-39.10Q112.19-42.56 112.96-45.44L112.96-45.44L112.96-45.44Q117.31-45.76 121.82-46.21L121.82-46.21L121.82-46.21Q126.34-46.66 130.62-47.42L130.62-47.42L130.62-47.42Q130.43-45.38 130.21-42.34L130.21-42.34L130.21-42.34Q129.98-39.30 129.79-35.71L129.79-35.71L129.79-35.71Q129.60-32.13 129.41-28.22L129.41-28.22L129.41-28.22Q129.22-24.32 129.02-20.54L129.02-20.54L129.02-20.54Q128.70-11.71 128.32-1.79L128.32-1.79L128.32-1.79Q126.40-1.47 124.48-1.28L124.48-1.28ZM118.59-33.41L114.62-17.34L114.62-17.34Q114.88-17.34 115.55-17.38L115.55-17.38L115.55-17.38Q116.22-17.41 116.96-17.44L116.96-17.44L116.96-17.44Q117.70-17.47 118.34-17.50L118.34-17.50L118.34-17.50Q118.98-17.54 119.23-17.60L119.23-17.60L119.23-17.60Q119.23-17.98 119.33-18.91L119.33-18.91L119.33-18.91Q119.42-19.84 119.52-21.02L119.52-21.02L119.52-21.02Q119.62-22.21 119.74-23.62L119.74-23.62L119.74-23.62Q119.87-25.02 120-26.37L120-26.37L120-26.37Q120.26-29.63 120.64-33.41L120.64-33.41L121.02-38.98L120.06-38.91L118.59-33.41ZM139.26-2.62L128.90 0.06L128.90 0.06Q130.62-8.45 132.22-16.58L132.22-16.58L132.22-16.58Q132.80-20.03 133.50-23.78L133.50-23.78L133.50-23.78Q134.21-27.52 134.82-31.20L134.82-31.20L134.82-31.20Q135.42-34.88 135.97-38.30L135.97-38.30L135.97-38.30Q136.51-41.73 136.83-44.54L136.83-44.54L136.83-44.54Q140.48-45.70 144.70-46.24L144.70-46.24L144.70-46.24Q148.93-46.78 153.09-46.78L153.09-46.78L153.09-46.78Q155.58-46.78 157.22-46.21L157.22-46.21L157.22-46.21Q158.85-45.63 159.78-44.58L159.78-44.58L159.78-44.58Q160.70-43.52 161.09-42.11L161.09-42.11L161.09-42.11Q161.47-40.70 161.47-38.98L161.47-38.98L161.47-38.98Q161.47-36.42 160.58-33.95L160.58-33.95L160.58-33.95Q159.68-31.49 158.18-29.28L158.18-29.28L158.18-29.28Q156.67-27.07 154.72-25.25L154.72-25.25L154.72-25.25Q152.77-23.42 150.53-22.27L150.53-22.27L150.53-22.27Q151.68-19.71 152.99-16.67L152.99-16.67L152.99-16.67Q154.30-13.63 155.46-10.88L155.46-10.88L155.46-10.88Q156.74-7.68 158.08-4.48L158.08-4.48L148.16-1.02L148.16-1.02Q146.88-5.12 145.86-8.70L145.86-8.70L145.86-8.70Q145.41-10.18 144.96-11.74L144.96-11.74L144.96-11.74Q144.51-13.31 144.13-14.72L144.13-14.72L144.13-14.72Q143.74-16.13 143.49-17.25L143.49-17.25L143.49-17.25Q143.23-18.37 143.17-19.07L143.17-19.07L142.34-18.82L142.34-18.82Q141.95-16.77 141.41-14.02L141.41-14.02L141.41-14.02Q140.86-11.26 140.42-8.70L140.42-8.70L140.42-8.70Q139.84-5.70 139.26-2.62L139.26-2.62ZM145.98-37.89L143.94-27.71L143.94-27.71Q145.15-27.84 146.91-28.74L146.91-28.74L146.91-28.74Q148.67-29.63 150.27-30.88L150.27-30.88L150.27-30.88Q151.87-32.13 153.02-33.47L153.02-33.47L153.02-33.47Q154.18-34.82 154.18-35.84L154.18-35.84L154.18-35.84Q154.18-36.54 153.73-36.96L153.73-36.96L153.73-36.96Q153.28-37.38 152.48-37.60L152.48-37.60L152.48-37.60Q151.68-37.82 150.72-37.89L150.72-37.89L150.72-37.89Q149.76-37.95 148.74-37.95L148.74-37.95L148.74-37.95Q148.03-37.95 147.30-37.92L147.30-37.92L147.30-37.92Q146.56-37.89 145.98-37.89L145.98-37.89ZM174.34-1.73L162.82 0.06L162.82 0.06Q164.29-6.98 165.63-13.82L165.63-13.82L165.63-13.82Q166.21-16.70 166.78-19.84L166.78-19.84L166.78-19.84Q167.36-22.98 167.90-26.02L167.90-26.02L167.90-26.02Q168.45-29.06 168.86-31.90L168.86-31.90L168.86-31.90Q169.28-34.75 169.60-37.12L169.60-37.12L169.60-37.12Q168.13-37.31 166.62-37.25L166.62-37.25L166.62-37.25Q165.12-37.18 163.65-37.63L163.65-37.63L163.65-37.63Q163.71-38.66 163.71-40L163.71-40L163.71-40Q163.71-41.34 163.78-42.69L163.78-42.69L163.78-42.69Q163.84-44.16 163.90-45.82L163.90-45.82L163.90-45.82Q165.57-45.70 167.23-45.63L167.23-45.63L167.23-45.63Q168.90-45.57 170.56-45.57L170.56-45.57L170.56-45.57Q173.82-45.57 176.86-45.73L176.86-45.73L176.86-45.73Q179.90-45.89 182.50-46.11L182.50-46.11L182.50-46.11Q185.09-46.34 187.58-46.66L187.58-46.66L186.88-43.20L186.88-43.20Q186.56-41.73 186.27-40.19L186.27-40.19L186.27-40.19Q185.98-38.66 185.73-37.57L185.73-37.57L185.73-37.57Q184.32-37.18 182.88-37.02L182.88-37.02L182.88-37.02Q181.44-36.86 180.03-36.61L180.03-36.61L180.03-36.61Q179.58-34.43 179.07-31.78L179.07-31.78L179.07-31.78Q178.56-29.12 178.08-26.27L178.08-26.27L178.08-26.27Q177.60-23.42 177.15-20.48L177.15-20.48L177.15-20.48Q176.70-17.54 176.26-14.85L176.26-14.85L176.26-14.85Q175.23-8.51 174.34-1.73L174.34-1.73ZM205.76-26.69L203.58-15.23L203.58-15.23Q201.34-15.30 199.33-15.36L199.33-15.36L199.33-15.36Q197.31-15.42 195.23-15.46L195.23-15.46L195.23-15.46Q193.15-15.49 191.74-15.49L191.74-15.49L191.74-15.49Q190.59-15.49 189.09-15.46L189.09-15.46L189.09-15.46Q187.58-15.42 186.05-15.36L186.05-15.36L186.05-15.36Q184.51-15.30 182.85-15.30L182.85-15.30L185.92-26.62L185.92-26.62Q187.65-26.56 189.22-26.50L189.22-26.50L189.22-26.50Q190.78-26.43 192.38-26.40L192.38-26.40L192.38-26.40Q193.98-26.37 195.07-26.37L195.07-26.37L195.07-26.37Q196.42-26.37 198.27-26.40L198.27-26.40L198.27-26.40Q200.13-26.43 201.95-26.50L201.95-26.50L201.95-26.50Q203.78-26.56 205.76-26.69L205.76-26.69ZM226.82-1.28L226.82-1.28Q225.22-1.02 223.30-0.70L223.30-0.70L223.30-0.70Q221.38-0.38 219.84-0.13L219.84-0.13L219.84-0.13Q220.10-2.24 220.35-4.29L220.35-4.29L220.35-4.29Q220.54-6.08 220.70-7.87L220.70-7.87L220.70-7.87Q220.86-9.66 220.99-10.94L220.99-10.94L215.42-10.94L212.86-1.73L212.86-1.73Q211.46-1.54 209.54-1.31L209.54-1.31L209.54-1.31Q207.62-1.09 205.95-0.90L205.95-0.90L205.95-0.90Q203.90-0.64 201.92-0.38L201.92-0.38L201.92-0.38Q204.48-8.90 206.98-17.15L206.98-17.15L206.98-17.15Q208.00-20.61 209.12-24.38L209.12-24.38L209.12-24.38Q210.24-28.16 211.36-31.90L211.36-31.90L211.36-31.90Q212.48-35.65 213.50-39.10L213.50-39.10L213.50-39.10Q214.53-42.56 215.30-45.44L215.30-45.44L215.30-45.44Q219.65-45.76 224.16-46.21L224.16-46.21L224.16-46.21Q228.67-46.66 232.96-47.42L232.96-47.42L232.96-47.42Q232.77-45.38 232.54-42.34L232.54-42.34L232.54-42.34Q232.32-39.30 232.13-35.71L232.13-35.71L232.13-35.71Q231.94-32.13 231.74-28.22L231.74-28.22L231.74-28.22Q231.55-24.32 231.36-20.54L231.36-20.54L231.36-20.54Q231.04-11.71 230.66-1.79L230.66-1.79L230.66-1.79Q228.74-1.47 226.82-1.28L226.82-1.28ZM220.93-33.41L216.96-17.34L216.96-17.34Q217.22-17.34 217.89-17.38L217.89-17.38L217.89-17.38Q218.56-17.41 219.30-17.44L219.30-17.44L219.30-17.44Q220.03-17.47 220.67-17.50L220.67-17.50L220.67-17.50Q221.31-17.54 221.57-17.60L221.57-17.60L221.57-17.60Q221.57-17.98 221.66-18.91L221.66-18.91L221.66-18.91Q221.76-19.84 221.86-21.02L221.86-21.02L221.86-21.02Q221.95-22.21 222.08-23.62L222.08-23.62L222.08-23.62Q222.21-25.02 222.34-26.37L222.34-26.37L222.34-26.37Q222.59-29.63 222.98-33.41L222.98-33.41L223.36-38.98L222.40-38.91L220.93-33.41Z" fill="#f00" stroke="#0f0" stroke-width="1.8"></path></g></g><g><g transform="translate(134.53843140602112, 98.77499961853027)"><path d="M10.62-2.62L0.26 0.06L0.26 0.06Q1.98-8.45 3.58-16.58L3.58-16.58L3.58-16.58Q4.16-20.03 4.86-23.78L4.86-23.78L4.86-23.78Q5.57-27.52 6.18-31.20L6.18-31.20L6.18-31.20Q6.78-34.88 7.33-38.30L7.33-38.30L7.33-38.30Q7.87-41.73 8.19-44.54L8.19-44.54L8.19-44.54Q11.84-45.70 16.06-46.24L16.06-46.24L16.06-46.24Q20.29-46.78 24.45-46.78L24.45-46.78L24.45-46.78Q26.94-46.78 28.58-46.21L28.58-46.21L28.58-46.21Q30.21-45.63 31.14-44.58L31.14-44.58L31.14-44.58Q32.06-43.52 32.45-42.11L32.45-42.11L32.45-42.11Q32.83-40.70 32.83-38.98L32.83-38.98L32.83-38.98Q32.83-36.42 31.94-33.95L31.94-33.95L31.94-33.95Q31.04-31.49 29.54-29.28L29.54-29.28L29.54-29.28Q28.03-27.07 26.08-25.25L26.08-25.25L26.08-25.25Q24.13-23.42 21.89-22.27L21.89-22.27L21.89-22.27Q23.04-19.71 24.35-16.67L24.35-16.67L24.35-16.67Q25.66-13.63 26.82-10.88L26.82-10.88L26.82-10.88Q28.10-7.68 29.44-4.48L29.44-4.48L19.52-1.02L19.52-1.02Q18.24-5.44 17.22-9.34L17.22-9.34L17.22-9.34Q16.77-10.94 16.32-12.64L16.32-12.64L16.32-12.64Q15.87-14.34 15.49-15.84L15.49-15.84L15.49-15.84Q15.10-17.34 14.85-18.50L14.85-18.50L14.85-18.50Q14.59-19.65 14.53-20.29L14.53-20.29L13.70-20.03L13.70-20.03Q13.31-17.98 12.77-15.04L12.77-15.04L12.77-15.04Q12.22-12.10 11.78-9.34L11.78-9.34L11.78-9.34Q11.20-6.08 10.62-2.62L10.62-2.62ZM17.34-37.89L15.30-27.71L15.30-27.71Q16.51-27.84 18.27-28.74L18.27-28.74L18.27-28.74Q20.03-29.63 21.63-30.88L21.63-30.88L21.63-30.88Q23.23-32.13 24.38-33.47L24.38-33.47L24.38-33.47Q25.54-34.82 25.54-35.84L25.54-35.84L25.54-35.84Q25.54-36.54 25.09-36.96L25.09-36.96L25.09-36.96Q24.64-37.38 23.84-37.60L23.84-37.60L23.84-37.60Q23.04-37.82 22.08-37.89L22.08-37.89L22.08-37.89Q21.12-37.95 20.10-37.95L20.10-37.95L20.10-37.95Q19.39-37.95 18.66-37.92L18.66-37.92L18.66-37.92Q17.92-37.89 17.34-37.89L17.34-37.89ZM49.60-3.14L28.93 0.06L37.31-45.44L57.54-47.17L57.54-47.17Q57.09-45.76 56.77-44.29L56.77-44.29L56.77-44.29Q56.45-43.07 56.16-41.76L56.16-41.76L56.16-41.76Q55.87-40.45 55.68-39.42L55.68-39.42L55.68-39.42Q55.04-39.36 53.86-39.33L53.86-39.33L53.86-39.33Q52.67-39.30 51.33-39.26L51.33-39.26L51.33-39.26Q49.98-39.23 48.61-39.23L48.61-39.23L48.61-39.23Q47.23-39.23 46.21-39.23L46.21-39.23L43.97-27.78L43.97-27.78Q45.95-27.90 47.68-27.97L47.68-27.97L47.68-27.97Q49.09-28.03 50.56-28.03L50.56-28.03L50.56-28.03Q52.03-28.03 52.74-28.10L52.74-28.10L52.74-28.10Q52.48-26.30 52.26-24.58L52.26-24.58L52.26-24.58Q52.03-22.85 51.71-21.06L51.71-21.06L51.71-21.06Q51.07-20.99 49.63-20.96L49.63-20.96L49.63-20.96Q48.19-20.93 46.72-20.86L46.72-20.86L46.72-20.86Q45.06-20.80 43.07-20.74L43.07-20.74L40.90-8.96L50.24-10.43L49.60-3.14ZM78.59-15.81L78.59-15.81Q78.59-12.22 77.22-9.31L77.22-9.31L77.22-9.31Q75.84-6.40 73.50-4.29L73.50-4.29L73.50-4.29Q71.17-2.18 68-1.02L68-1.02L68-1.02Q64.83 0.13 61.18 0.13L61.18 0.13L61.18 0.13Q58.62 0.13 56.06-1.25L56.06-1.25L56.06-1.25Q53.50-2.62 51.14-5.63L51.14-5.63L55.87-14.91L55.87-14.91Q56.32-14.08 57.22-13.22L57.22-13.22L57.22-13.22Q58.11-12.35 59.23-11.71L59.23-11.71L59.23-11.71Q60.35-11.07 61.47-10.66L61.47-10.66L61.47-10.66Q62.59-10.24 63.49-10.24L63.49-10.24L63.49-10.24Q64.26-10.24 65.09-10.50L65.09-10.50L65.09-10.50Q65.92-10.75 66.62-11.26L66.62-11.26L66.62-11.26Q67.33-11.78 67.74-12.45L67.74-12.45L67.74-12.45Q68.16-13.12 68.16-14.02L68.16-14.02L68.16-14.02Q68.16-15.55 67.17-16.86L67.17-16.86L67.17-16.86Q66.18-18.18 64.70-19.36L64.70-19.36L64.70-19.36Q63.23-20.54 61.50-21.76L61.50-21.76L61.50-21.76Q59.78-22.98 58.34-24.32L58.34-24.32L58.34-24.32Q56.90-25.66 55.87-27.33L55.87-27.33L55.87-27.33Q54.85-28.99 54.85-31.04L54.85-31.04L54.85-31.04Q54.85-34.37 56.83-37.25L56.83-37.25L56.83-37.25Q58.82-40.13 61.79-42.21L61.79-42.21L61.79-42.21Q64.77-44.29 68.29-45.50L68.29-45.50L68.29-45.50Q71.81-46.72 74.94-46.72L74.94-46.72L74.94-46.72Q76.67-46.72 78.21-46.30L78.21-46.30L78.21-46.30Q79.74-45.89 80.86-44.96L80.86-44.96L80.86-44.96Q81.98-44.03 82.66-42.62L82.66-42.62L82.66-42.62Q83.33-41.22 83.33-39.10L83.33-39.10L83.33-39.10Q83.33-38.21 83.17-37.31L83.17-37.31L83.17-37.31Q83.01-36.42 82.88-35.39L82.88-35.39L73.60-32.70L73.60-32.70Q73.73-33.22 73.82-33.73L73.82-33.73L73.82-33.73Q73.92-34.24 73.92-34.75L73.92-34.75L73.92-34.75Q73.92-36.67 73.25-37.54L73.25-37.54L73.25-37.54Q72.58-38.40 71.49-38.40L71.49-38.40L71.49-38.40Q70.98-38.40 70.24-38.02L70.24-38.02L70.24-38.02Q69.50-37.63 68.77-37.02L68.77-37.02L68.77-37.02Q68.03-36.42 67.52-35.58L67.52-35.58L67.52-35.58Q67.01-34.75 67.01-33.79L67.01-33.79L67.01-33.79Q67.01-32.26 67.87-31.23L67.87-31.23L67.87-31.23Q68.74-30.21 70.02-29.31L70.02-29.31L70.02-29.31Q71.30-28.42 72.80-27.49L72.80-27.49L72.80-27.49Q74.30-26.56 75.58-25.09L75.58-25.09L75.58-25.09Q76.86-23.62 77.73-21.41L77.73-21.41L77.73-21.41Q78.59-19.20 78.59-15.81L78.59-15.81ZM95.04-1.73L83.52 0.06L83.52 0.06Q84.99-6.98 86.34-13.82L86.34-13.82L86.34-13.82Q86.91-16.70 87.49-19.84L87.49-19.84L87.49-19.84Q88.06-22.98 88.61-26.02L88.61-26.02L88.61-26.02Q89.15-29.06 89.57-31.90L89.57-31.90L89.57-31.90Q89.98-34.75 90.30-37.12L90.30-37.12L90.30-37.12Q88.83-37.31 87.33-37.25L87.33-37.25L87.33-37.25Q85.82-37.18 84.35-37.63L84.35-37.63L84.35-37.63Q84.42-38.66 84.42-40L84.42-40L84.42-40Q84.42-41.34 84.48-42.69L84.48-42.69L84.48-42.69Q84.54-44.16 84.61-45.82L84.61-45.82L84.61-45.82Q86.27-45.70 87.94-45.63L87.94-45.63L87.94-45.63Q89.60-45.57 91.26-45.57L91.26-45.57L91.26-45.57Q94.53-45.57 97.57-45.73L97.57-45.73L97.57-45.73Q100.61-45.89 103.20-46.11L103.20-46.11L103.20-46.11Q105.79-46.34 108.29-46.66L108.29-46.66L107.58-43.20L107.58-43.20Q107.26-41.73 106.98-40.19L106.98-40.19L106.98-40.19Q106.69-38.66 106.43-37.57L106.43-37.57L106.43-37.57Q105.02-37.18 103.58-37.02L103.58-37.02L103.58-37.02Q102.14-36.86 100.74-36.61L100.74-36.61L100.74-36.61Q100.29-34.43 99.78-31.78L99.78-31.78L99.78-31.78Q99.26-29.12 98.78-26.27L98.78-26.27L98.78-26.27Q98.30-23.42 97.86-20.48L97.86-20.48L97.86-20.48Q97.41-17.54 96.96-14.85L96.96-14.85L96.96-14.85Q95.94-8.51 95.04-1.73L95.04-1.73ZM124.48-1.28L124.48-1.28Q122.88-1.02 120.96-0.70L120.96-0.70L120.96-0.70Q119.04-0.38 117.50-0.13L117.50-0.13L117.50-0.13Q117.76-2.24 118.02-4.29L118.02-4.29L118.02-4.29Q118.21-6.08 118.37-7.87L118.37-7.87L118.37-7.87Q118.53-9.66 118.66-10.94L118.66-10.94L113.09-10.94L110.53-1.73L110.53-1.73Q109.12-1.54 107.20-1.31L107.20-1.31L107.20-1.31Q105.28-1.09 103.62-0.90L103.62-0.90L103.62-0.90Q101.57-0.64 99.58-0.38L99.58-0.38L99.58-0.38Q102.14-8.90 104.64-17.15L104.64-17.15L104.64-17.15Q105.66-20.61 106.78-24.38L106.78-24.38L106.78-24.38Q107.90-28.16 109.02-31.90L109.02-31.90L109.02-31.90Q110.14-35.65 111.17-39.10L111.17-39.10L111.17-39.10Q112.19-42.56 112.96-45.44L112.96-45.44L112.96-45.44Q117.31-45.76 121.82-46.21L121.82-46.21L121.82-46.21Q126.34-46.66 130.62-47.42L130.62-47.42L130.62-47.42Q130.43-45.38 130.21-42.34L130.21-42.34L130.21-42.34Q129.98-39.30 129.79-35.71L129.79-35.71L129.79-35.71Q129.60-32.13 129.41-28.22L129.41-28.22L129.41-28.22Q129.22-24.32 129.02-20.54L129.02-20.54L129.02-20.54Q128.70-11.71 128.32-1.79L128.32-1.79L128.32-1.79Q126.40-1.47 124.48-1.28L124.48-1.28ZM118.59-33.41L114.62-17.34L114.62-17.34Q114.88-17.34 115.55-17.38L115.55-17.38L115.55-17.38Q116.22-17.41 116.96-17.44L116.96-17.44L116.96-17.44Q117.70-17.47 118.34-17.50L118.34-17.50L118.34-17.50Q118.98-17.54 119.23-17.60L119.23-17.60L119.23-17.60Q119.23-17.98 119.33-18.91L119.33-18.91L119.33-18.91Q119.42-19.84 119.52-21.02L119.52-21.02L119.52-21.02Q119.62-22.21 119.74-23.62L119.74-23.62L119.74-23.62Q119.87-25.02 120-26.37L120-26.37L120-26.37Q120.26-29.63 120.64-33.41L120.64-33.41L121.02-38.98L120.06-38.91L118.59-33.41ZM139.26-2.62L128.90 0.06L128.90 0.06Q130.62-8.45 132.22-16.58L132.22-16.58L132.22-16.58Q132.80-20.03 133.50-23.78L133.50-23.78L133.50-23.78Q134.21-27.52 134.82-31.20L134.82-31.20L134.82-31.20Q135.42-34.88 135.97-38.30L135.97-38.30L135.97-38.30Q136.51-41.73 136.83-44.54L136.83-44.54L136.83-44.54Q140.48-45.70 144.70-46.24L144.70-46.24L144.70-46.24Q148.93-46.78 153.09-46.78L153.09-46.78L153.09-46.78Q155.58-46.78 157.22-46.21L157.22-46.21L157.22-46.21Q158.85-45.63 159.78-44.58L159.78-44.58L159.78-44.58Q160.70-43.52 161.09-42.11L161.09-42.11L161.09-42.11Q161.47-40.70 161.47-38.98L161.47-38.98L161.47-38.98Q161.47-36.42 160.58-33.95L160.58-33.95L160.58-33.95Q159.68-31.49 158.18-29.28L158.18-29.28L158.18-29.28Q156.67-27.07 154.72-25.25L154.72-25.25L154.72-25.25Q152.77-23.42 150.53-22.27L150.53-22.27L150.53-22.27Q151.68-19.71 152.99-16.67L152.99-16.67L152.99-16.67Q154.30-13.63 155.46-10.88L155.46-10.88L155.46-10.88Q156.74-7.68 158.08-4.48L158.08-4.48L148.16-1.02L148.16-1.02Q146.88-5.12 145.86-8.70L145.86-8.70L145.86-8.70Q145.41-10.18 144.96-11.74L144.96-11.74L144.96-11.74Q144.51-13.31 144.13-14.72L144.13-14.72L144.13-14.72Q143.74-16.13 143.49-17.25L143.49-17.25L143.49-17.25Q143.23-18.37 143.17-19.07L143.17-19.07L142.34-18.82L142.34-18.82Q141.95-16.77 141.41-14.02L141.41-14.02L141.41-14.02Q140.86-11.26 140.42-8.70L140.42-8.70L140.42-8.70Q139.84-5.70 139.26-2.62L139.26-2.62ZM145.98-37.89L143.94-27.71L143.94-27.71Q145.15-27.84 146.91-28.74L146.91-28.74L146.91-28.74Q148.67-29.63 150.27-30.88L150.27-30.88L150.27-30.88Q151.87-32.13 153.02-33.47L153.02-33.47L153.02-33.47Q154.18-34.82 154.18-35.84L154.18-35.84L154.18-35.84Q154.18-36.54 153.73-36.96L153.73-36.96L153.73-36.96Q153.28-37.38 152.48-37.60L152.48-37.60L152.48-37.60Q151.68-37.82 150.72-37.89L150.72-37.89L150.72-37.89Q149.76-37.95 148.74-37.95L148.74-37.95L148.74-37.95Q148.03-37.95 147.30-37.92L147.30-37.92L147.30-37.92Q146.56-37.89 145.98-37.89L145.98-37.89ZM174.34-1.73L162.82 0.06L162.82 0.06Q164.29-6.98 165.63-13.82L165.63-13.82L165.63-13.82Q166.21-16.70 166.78-19.84L166.78-19.84L166.78-19.84Q167.36-22.98 167.90-26.02L167.90-26.02L167.90-26.02Q168.45-29.06 168.86-31.90L168.86-31.90L168.86-31.90Q169.28-34.75 169.60-37.12L169.60-37.12L169.60-37.12Q168.13-37.31 166.62-37.25L166.62-37.25L166.62-37.25Q165.12-37.18 163.65-37.63L163.65-37.63L163.65-37.63Q163.71-38.66 163.71-40L163.71-40L163.71-40Q163.71-41.34 163.78-42.69L163.78-42.69L163.78-42.69Q163.84-44.16 163.90-45.82L163.90-45.82L163.90-45.82Q165.57-45.70 167.23-45.63L167.23-45.63L167.23-45.63Q168.90-45.57 170.56-45.57L170.56-45.57L170.56-45.57Q173.82-45.57 176.86-45.73L176.86-45.73L176.86-45.73Q179.90-45.89 182.50-46.11L182.50-46.11L182.50-46.11Q185.09-46.34 187.58-46.66L187.58-46.66L186.88-43.20L186.88-43.20Q186.56-41.73 186.27-40.19L186.27-40.19L186.27-40.19Q185.98-38.66 185.73-37.57L185.73-37.57L185.73-37.57Q184.32-37.18 182.88-37.02L182.88-37.02L182.88-37.02Q181.44-36.86 180.03-36.61L180.03-36.61L180.03-36.61Q179.58-34.43 179.07-31.78L179.07-31.78L179.07-31.78Q178.56-29.12 178.08-26.27L178.08-26.27L178.08-26.27Q177.60-23.42 177.15-20.48L177.15-20.48L177.15-20.48Q176.70-17.54 176.26-14.85L176.26-14.85L176.26-14.85Q175.23-8.51 174.34-1.73L174.34-1.73ZM205.76-26.69L203.58-15.23L203.58-15.23Q201.34-15.30 199.33-15.36L199.33-15.36L199.33-15.36Q197.31-15.42 195.23-15.46L195.23-15.46L195.23-15.46Q193.15-15.49 191.74-15.49L191.74-15.49L191.74-15.49Q190.59-15.49 189.09-15.46L189.09-15.46L189.09-15.46Q187.58-15.42 186.05-15.36L186.05-15.36L186.05-15.36Q184.51-15.30 182.85-15.30L182.85-15.30L185.92-26.62L185.92-26.62Q187.65-26.56 189.22-26.50L189.22-26.50L189.22-26.50Q190.78-26.43 192.38-26.40L192.38-26.40L192.38-26.40Q193.98-26.37 195.07-26.37L195.07-26.37L195.07-26.37Q196.42-26.37 198.27-26.40L198.27-26.40L198.27-26.40Q200.13-26.43 201.95-26.50L201.95-26.50L201.95-26.50Q203.78-26.56 205.76-26.69L205.76-26.69ZM226.82-1.28L226.82-1.28Q225.22-1.02 223.30-0.70L223.30-0.70L223.30-0.70Q221.38-0.38 219.84-0.13L219.84-0.13L219.84-0.13Q220.10-2.24 220.35-4.29L220.35-4.29L220.35-4.29Q220.54-6.08 220.70-7.87L220.70-7.87L220.70-7.87Q220.86-9.66 220.99-10.94L220.99-10.94L215.42-10.94L212.86-1.73L212.86-1.73Q211.46-1.54 209.54-1.31L209.54-1.31L209.54-1.31Q207.62-1.09 205.95-0.90L205.95-0.90L205.95-0.90Q203.90-0.64 201.92-0.38L201.92-0.38L201.92-0.38Q204.48-8.90 206.98-17.15L206.98-17.15L206.98-17.15Q208.00-20.61 209.12-24.38L209.12-24.38L209.12-24.38Q210.24-28.16 211.36-31.90L211.36-31.90L211.36-31.90Q212.48-35.65 213.50-39.10L213.50-39.10L213.50-39.10Q214.53-42.56 215.30-45.44L215.30-45.44L215.30-45.44Q219.65-45.76 224.16-46.21L224.16-46.21L224.16-46.21Q228.67-46.66 232.96-47.42L232.96-47.42L232.96-47.42Q232.77-45.38 232.54-42.34L232.54-42.34L232.54-42.34Q232.32-39.30 232.13-35.71L232.13-35.71L232.13-35.71Q231.94-32.13 231.74-28.22L231.74-28.22L231.74-28.22Q231.55-24.32 231.36-20.54L231.36-20.54L231.36-20.54Q231.04-11.71 230.66-1.79L230.66-1.79L230.66-1.79Q228.74-1.47 226.82-1.28L226.82-1.28ZM220.93-33.41L216.96-17.34L216.96-17.34Q217.22-17.34 217.89-17.38L217.89-17.38L217.89-17.38Q218.56-17.41 219.30-17.44L219.30-17.44L219.30-17.44Q220.03-17.47 220.67-17.50L220.67-17.50L220.67-17.50Q221.31-17.54 221.57-17.60L221.57-17.60L221.57-17.60Q221.57-17.98 221.66-18.91L221.66-18.91L221.66-18.91Q221.76-19.84 221.86-21.02L221.86-21.02L221.86-21.02Q221.95-22.21 222.08-23.62L222.08-23.62L222.08-23.62Q222.21-25.02 222.34-26.37L222.34-26.37L222.34-26.37Q222.59-29.63 222.98-33.41L222.98-33.41L223.36-38.98L222.40-38.91L220.93-33.41Z" fill="none" stroke="#fff" stroke-width="2.1"></path></g></g></g><style>text {
  font-size: 64px;
  font-family: Arial Black;
  dominant-baseline: central;
  text-anchor: middle;
}</style></svg>